<svg preserveAspectRatio="none" width="100%" height="100%" overflow="visible" style="display: block;" viewBox="0 0 62 41.0001" fill="none" xmlns="http://www.w3.org/2000/svg">
<path id="bike" fill-rule="evenodd" clip-rule="evenodd" d="M29.278 3.6074H22.7132C22.4888 3.71005 21.9894 3.99377 21.7875 4.30731C21.6304 4.55112 20.9771 5.99557 20.4655 7.14812H23.4082C24.8001 7.14812 28.0602 7.88433 29.9659 10.8291C30.6198 11.9344 32.5833 14.2572 35.2063 14.7068L42.8008 11.9531C43.5761 11.8314 46.343 11.5878 51.208 11.5878H59.6151V15.1002H47.0044C45.8742 15.2743 44.3962 15.6998 42.9123 16.4483L44.504 18.4828C45.0681 18.0659 45.6879 17.6562 46.3689 17.2573L46.3724 17.2553L46.3763 17.2542C47.8072 16.8789 50.1785 16.6607 52.646 17.2248C55.1142 17.7891 57.6799 19.1365 59.4956 21.893C61.311 24.6491 61.6888 27.6921 61.4242 30.3747C61.1597 33.0569 60.2529 35.3809 59.4966 36.7019L59.4949 36.7048L59.4926 36.7073C58.0379 38.2704 53.5797 41.1826 47.3659 40.3547C43.4787 39.8368 41.2751 37.7305 40.0835 35.6406C39.488 34.5961 39.1452 33.5558 38.971 32.7201C38.8839 32.3023 38.8388 31.9352 38.8254 31.644C38.8121 31.3541 38.83 31.1359 38.8712 31.0179C38.8893 30.9661 38.8993 30.8882 38.9034 30.7837C38.9074 30.6799 38.9054 30.5524 38.9007 30.4029C38.8955 30.2389 38.8871 30.0486 38.8798 29.8352L29.9659 30.021C29.6109 30.0959 28.6207 29.8861 27.4997 28.4474C26.4406 27.0881 20.9956 19.2341 17.9712 14.8481L16.9621 18.1547C18.5263 18.9282 20.0058 20.1187 21.1746 21.893C22.9899 24.6491 23.3677 27.6921 23.1032 30.3747C22.8387 33.0569 21.9319 35.3809 21.1755 36.7019L21.1739 36.7048L21.1716 36.7073C19.7169 38.2704 15.2587 41.1826 9.0449 40.3547C5.15766 39.8368 2.95407 37.7305 1.76248 35.6406C1.16693 34.5961 0.824191 33.5558 0.649968 32.7201C0.562861 32.3023 0.5178 31.9352 0.504411 31.644C0.491087 31.3542 0.508952 31.1359 0.550159 31.0179C0.568228 30.9661 0.578268 30.8882 0.58232 30.7837C0.586347 30.6799 0.584406 30.5524 0.579683 30.4029C0.570254 30.1044 0.549892 29.7189 0.545688 29.2655C0.537274 28.358 0.593378 27.1747 0.930361 25.8491C1.60463 23.1969 3.4024 19.9787 8.04791 17.2573L8.0514 17.2553L8.0553 17.2542C9.38065 16.9065 11.5129 16.6938 13.7811 17.1127L14.6248 14.4434H12.9342C11.9076 14.4434 11.5393 13.3563 11.4835 12.8127C11.3905 11.1351 11.2603 7.49875 11.4835 6.3741C11.7067 5.24947 12.8226 5.19323 13.3527 5.30569H16.6907C17.0412 3.78714 18.4229 1.2308 21.7875 0.919932C25.4233 0.583993 28.4831 0.5 29.5585 0.5L29.278 3.6074ZM12.1708 22.2078C11.2178 22.1302 10.3601 22.2358 9.78094 22.3883L9.77705 22.3893L9.77355 22.3913C7.21166 23.8978 6.21923 25.68 5.84696 27.1498C5.66097 27.8842 5.63003 28.5396 5.63467 29.0421C5.63699 29.293 5.64818 29.5066 5.65336 29.6713C5.65596 29.7539 5.65705 29.824 5.65485 29.8809C5.65262 29.9384 5.64709 29.9798 5.63782 30.0065C5.61424 30.0743 5.60456 30.1972 5.61191 30.3577C5.61932 30.5194 5.64425 30.7231 5.69234 30.9547C5.78855 31.4179 5.97781 31.9944 6.30662 32.5733C6.9647 33.7317 8.18182 34.8992 10.3277 35.1862C13.7553 35.6446 16.2151 34.0323 17.0188 33.1654L17.0211 33.163L17.0228 33.16C17.4403 32.4282 17.9403 31.1415 18.0862 29.6565C18.2321 28.1712 18.0238 26.4855 17.0218 24.9585C16.5536 24.2451 15.995 23.7019 15.3938 23.2939L13.5345 29.387L10.1861 28.4876L12.1708 22.2078ZM51.5618 22.3718C50.2003 22.0594 48.8919 22.1802 48.102 22.3882L48.0981 22.3892L48.0946 22.3913C47.9708 22.464 47.8507 22.5374 47.7342 22.6114L51.4843 27.4046L51.5443 27.4077V29.5714L43.9759 29.7291C43.9773 29.787 43.9775 29.8377 43.9759 29.8809C43.9737 29.9384 43.9681 29.9798 43.9589 30.0065C43.9353 30.0742 43.9256 30.1971 43.9329 30.3576C43.9404 30.5194 43.9653 30.723 44.0134 30.9546C44.1096 31.4178 44.2988 31.9944 44.6276 32.5732C45.2857 33.7317 46.5028 34.8992 48.6487 35.1862C52.0763 35.6446 54.5361 34.0322 55.3399 33.1654L55.3421 33.1629L55.3438 33.16C55.7613 32.4282 56.2614 31.1414 56.4073 29.6564C56.5532 28.1711 56.3449 26.4854 55.3428 24.9585C54.3405 23.431 52.9239 22.6844 51.5618 22.3718ZM45.218 24.9098C44.6917 25.6419 44.3804 26.3673 44.1987 27.0331L46.9532 27.1736L45.218 24.9098ZM40.1497 18.2978C38.075 20.1255 36.5009 22.8226 36.6635 26.6491L39.0554 26.771C39.1068 26.473 39.1711 26.1651 39.2514 25.8491C39.653 24.2695 40.4531 22.4891 42.016 20.7325L40.1497 18.2978Z" fill="var(--fill-0, white)" stroke="var(--stroke-0, white)"/>
</svg>
