<svg preserveAspectRatio="none" width="100%" height="100%" overflow="visible" style="display: block;" viewBox="0 0 68.5751 41.2105" fill="none" xmlns="http://www.w3.org/2000/svg">
<path id="Union" d="M15.7704 32.0615C16.9925 31.7663 19.8237 31.7193 21.374 33.8877C22.9237 36.0565 22.0199 38.678 21.374 39.7178C20.7532 40.3322 18.8476 41.4792 16.1923 41.1533C12.874 40.7456 12.4315 37.8403 12.5654 37.4844C12.6986 37.1276 11.8006 34.2047 15.7704 32.0615ZM50.8056 32.0615C52.0277 31.7663 54.8588 31.7193 56.4091 33.8877C57.9588 36.0564 57.0551 38.678 56.4091 39.7178C55.7883 40.3322 53.8827 41.4792 51.2275 41.1533C47.9092 40.7456 47.4666 37.8403 47.6005 37.4844C47.7337 37.1275 46.8359 34.2047 50.8056 32.0615ZM66.4951 35.2627L58.1425 35.75C58.5324 32.7862 56.8425 30.972 53.8203 30.3545H66.4951V35.2627ZM10.0097 4.77734C10.7453 3.50375 12.7861 3.55321 13.7148 3.7373H27.9824V30.0303H50.8954C47.0283 31.3628 46.2808 34.038 46.3456 35.0674H23.8554C23.552 33.5724 21.8267 30.5564 17.3554 30.4521C12.8837 30.3482 11.7647 33.4856 11.7646 35.0674H2.5351V30.3545H0.676697C-0.395418 28.1123 -0.038204 25.8373 0.676697 24.5049H2.5351V20.9297C2.53519 19.1361 3.14191 17.9077 3.44525 17.5176C5.32702 13.8019 9.27375 6.05219 10.0097 4.77734ZM66.4628 0V24.6348H68.5751V27.04H66.4628V28.4033H30.3007V0H66.4628ZM19.0449 22.165H23.0107V20.2803H19.0449V22.165ZM8.77533 17.583H22.9775V7.99512H13.2607L8.77533 17.583Z" fill="var(--fill-0, white)"/>
</svg>
